<?xml version="1.0" ?><!DOCTYPE svg  PUBLIC '-//W3C//DTD SVG 1.1//EN'  'http://www.w3.org/Graphics/SVG/1.1/DTD/svg11.dtd'><svg enable-background="new 0 0 128 128" id="Слой_1" version="1.1" viewBox="0 0 128 128" xml:space="preserve" xmlns="http://www.w3.org/2000/svg" xmlns:xlink="http://www.w3.org/1999/xlink"><circle cx="64" cy="64" fill="#EEEBA8" r="62"/><g><g><g><g><path d="M58.1,62.7c-2.1-0.4-4,1-4.4,3.1l-8,57.5c1.7,0.5,3.5,1,5.2,1.4l10.2-57.6C61.5,65,60.2,63,58.1,62.7z" fill="#CCD1CD"/></g><g><path d="M58.3,61.7c-0.3,0-0.6-0.1-0.8-0.1c-2.3,0-4.3,1.7-4.7,4L44.8,123c0.6,0.2,1.3,0.4,1.9,0.6l8-57.6      c0.2-1.3,1.4-2.3,2.7-2.3c0.2,0,0.3,0,0.5,0c1.5,0.3,2.5,1.7,2.2,3.2L50,124.4c0.6,0.1,1.3,0.3,2,0.4l10.2-57.6      C62.6,64.6,60.9,62.2,58.3,61.7z" fill="#2D2E2D"/></g><g><g><path d="M69.9,62.7c-2.1,0.4-3.4,2.3-3.1,4.4L77,124.6c1.8-0.4,3.5-0.8,5.2-1.4l-7.9-57.5       C73.9,63.7,72,62.3,69.9,62.7z" fill="#CCD1CD"/></g><g><path d="M70.6,61.6c-0.3,0-0.6,0-0.8,0.1c-2.6,0.5-4.3,2.9-3.9,5.5L76,124.8c0.7-0.1,1.3-0.3,2-0.4L67.8,66.9       c-0.3-1.5,0.7-2.9,2.3-3.2c0.2,0,0.3,0,0.5,0c1.3,0,2.5,1,2.7,2.3l8,57.7c0.6-0.2,1.3-0.4,1.9-0.6l-7.9-57.4       C74.9,63.3,72.9,61.6,70.6,61.6z" fill="#2D2E2D"/></g></g></g><g opacity="0.2"><path d="M58.1,62.7c-2.1-0.4-4,1-4.4,3.1l-2.8,20.4c1.7,1.7,3.8,3,6.2,3.8l4-22.9C61.5,65,60.2,63,58.1,62.7z" fill="#040606"/></g><g opacity="0.2"><path d="M69.9,62.7c-2.1,0.4-3.4,2.3-3.1,4.4l4,22.9c2.4-0.8,4.5-2.1,6.2-3.8l-2.8-20.4     C73.9,63.7,72,62.3,69.9,62.7z" fill="#040606"/></g><g><path d="M65.9,34h-3.8c-1.4,0-2.6,1.2-2.6,2.6v25c0,1.4,1.2,2.6,2.6,2.6h3.8c1.4,0,2.6-1.2,2.6-2.6v-25     C68.5,35.2,67.4,34,65.9,34z" fill="#52544F"/></g><g opacity="0.3"><path d="M59.5,61.6c0,1.4,1.2,2.6,2.6,2.6h3.8c1.4,0,2.6-1.2,2.6-2.6v-11h-9.1V61.6z" fill="#040606"/></g><g><path d="M65.9,33h-3.8c-2,0-3.6,1.6-3.6,3.6v25c0,2,1.6,3.6,3.6,3.6h3.8c2,0,3.6-1.6,3.6-3.6v-25     C69.5,34.6,67.9,33,65.9,33z M67.5,61.6c0,0.9-0.7,1.6-1.6,1.6h-3.8c-0.9,0-1.6-0.7-1.6-1.6v-25c0-0.9,0.7-1.6,1.6-1.6h3.8     c0.9,0,1.6,0.7,1.6,1.6V61.6z" fill="#2D2E2D"/></g><g><path d="M52.7,74c0,6.3,5.1,11.3,11.3,11.3h0c6.3,0,11.3-5.1,11.3-11.3V55.1H52.7V74z" fill="#AB8C66"/></g><g><path d="M75.3,54.1H52.7c-0.6,0-1,0.4-1,1V74c0,6.8,5.5,12.3,12.3,12.3S76.3,80.8,76.3,74V55.1     C76.3,54.6,75.9,54.1,75.3,54.1z M74.3,74c0,5.7-4.6,10.3-10.3,10.3S53.7,79.7,53.7,74V56.1h20.6V74z" fill="#2D2E2D"/></g><g><path d="M58,60.9c-1.4,0-2.5,1.1-2.5,2.5s1.1,2.5,2.5,2.5s2.5-1.1,2.5-2.5S59.4,60.9,58,60.9z M58,63.9     c-0.3,0-0.5-0.2-0.5-0.5s0.2-0.5,0.5-0.5c0.3,0,0.5,0.2,0.5,0.5S58.3,63.9,58,63.9z" fill="#2D2E2D"/></g><g><path d="M70,60.9c-1.4,0-2.5,1.1-2.5,2.5s1.1,2.5,2.5,2.5s2.5-1.1,2.5-2.5S71.4,60.9,70,60.9z M70,63.9     c-0.3,0-0.5-0.2-0.5-0.5s0.2-0.5,0.5-0.5c0.3,0,0.5,0.2,0.5,0.5S70.3,63.9,70,63.9z" fill="#2D2E2D"/></g></g></g></svg>